D:\school\WTK\thesis\model\3dpredictsim\Results\debug_batch\Pog_s1_tmt_bCst_d05_k800_ig24_act_TTC_GRF.mot
nRows=15
nColumns=19

name D:\school\WTK\thesis\model\3dpredictsim\Results\debug_batch\Pog_s1_tmt_bCst_d05_k800_ig24_act_TTC_GRF.mot
datacolumns 19
datarows 15
range 0.6252550869 0.8003265113
endheader
time 	ground_force_vx	ground_force_vy	ground_force_vz	ground_force_px	ground_force_py	ground_force_pz	1_ground_force_vx	1_ground_force_vy	1_ground_force_vz	1_ground_force_px	1_ground_force_py	1_ground_force_pz	ground_torque_x	ground_torque_y	ground_torque_z	1_ground_torque_x	1_ground_torque_y	1_ground_torque_z
        0.6252550869	      110.9629079967	      432.3726289626	        0.9006611835	        0.4251205968	        0.0000000000	        0.0355879455	      -39.2578002012	       31.5640558499	      -10.7051141752	        0.9871797066	        0.0000000000	       -0.0507583644	        0.0000000000	        0.0000000000	        0.0000000000	        0.0000000000	        0.0000000000	        0.0000000000	
        0.6377601887	       74.8157404988	      327.1269479779	        6.7434935550	        0.4330513864	        0.0000000000	        0.0325227305	     -114.1868361676	      119.7196614311	      -45.7613475698	        0.9948673134	        0.0000000000	       -0.0488159844	        0.0000000000	        0.0000000000	        0.0000000000	        0.0000000000	        0.0000000000	        0.0000000000	
        0.6502652904	       38.7281207506	      212.5735807828	       13.5547819139	        0.4473412032	        0.0000000000	        0.0265988590	      -62.2198119765	      314.5911914508	      -15.2864783635	        1.0001284052	        0.0000000000	       -0.0468154855	        0.0000000000	        0.0000000000	        0.0000000000	        0.0000000000	        0.0000000000	        0.0000000000	
        0.6627703921	       22.3467001844	      163.0297289860	       14.3170331756	        0.4532386775	        0.0000000000	        0.0237763006	      -65.1537845430	      529.0221584714	        5.7913655451	        1.0030887031	        0.0000000000	       -0.0466499161	        0.0000000000	        0.0000000000	        0.0000000000	        0.0000000000	        0.0000000000	        0.0000000000	
        0.6752754939	       17.3277051736	      120.8314253978	       17.0387972608	        0.4536296140	        0.0000000000	        0.0240663329	     -113.6069273989	      743.9778972180	       14.5803789437	        1.0114633230	        0.0000000000	       -0.0485429348	        0.0000000000	        0.0000000000	        0.0000000000	        0.0000000000	        0.0000000000	        0.0000000000	
        0.6877805956	        5.0740345489	       68.8906151879	       15.3856162505	        0.4536115981	        0.0000000000	        0.0243113194	     -148.9806382701	      886.3037171767	       20.6521163613	        1.0198169156	        0.0000000000	       -0.0505011635	        0.0000000000	        0.0000000000	        0.0000000000	        0.0000000000	        0.0000000000	        0.0000000000	
        0.7002856974	       -6.8978198938	       12.7809343042	        3.3706746214	        0.4507035014	        0.0000000000	        0.0238599606	     -155.8503877828	      912.6781510744	       20.8318295976	        1.0252423215	        0.0000000000	       -0.0516421125	        0.0000000000	        0.0000000000	        0.0000000000	        0.0000000000	        0.0000000000	        0.0000000000	
        0.7127907991	        0.0026362675	       -0.0022220800	        0.0001137344	        0.0000000000	        0.0000000000	        0.0000000000	     -142.1275707091	      879.5379404634	       19.8117980686	        1.0291629887	        0.0000000000	       -0.0523094983	        0.0000000000	        0.0000000000	        0.0000000000	        0.0000000000	        0.0000000000	        0.0000000000	
        0.7252959008	        0.0040667349	       -0.0029313961	        0.0002635051	        0.0000000000	        0.0000000000	        0.0000000000	     -123.3760039644	      821.4728960307	       18.5036443337	        1.0327198437	        0.0000000000	       -0.0526921444	        0.0000000000	        0.0000000000	        0.0000000000	        0.0000000000	        0.0000000000	        0.0000000000	
        0.7378010026	        0.0227488391	       -0.0143571551	        0.0017400622	        0.0000000000	        0.0000000000	        0.0000000000	     -108.1775791890	      769.6434200497	       17.7319510948	        1.0364378743	        0.0000000000	       -0.0528188766	        0.0000000000	        0.0000000000	        0.0000000000	        0.0000000000	        0.0000000000	        0.0000000000	
        0.7503061043	       -0.2113685330	        0.1213890153	       -0.0169123508	        0.0000000000	        0.0000000000	        0.0000000000	      -94.8929827915	      729.3947139913	       17.4927330757	        1.0403874741	        0.0000000000	       -0.0527973960	        0.0000000000	        0.0000000000	        0.0000000000	        0.0000000000	        0.0000000000	        0.0000000000	
        0.7628112061	       -0.2102031717	        0.1122361467	       -0.0169642610	        0.0000000000	        0.0000000000	        0.0000000000	      -84.1669678901	      699.8200541115	       17.4997194986	        1.0449633587	        0.0000000000	       -0.0526238065	        0.0000000000	        0.0000000000	        0.0000000000	        0.0000000000	        0.0000000000	        0.0000000000	
        0.7753163078	       -0.1228811289	        0.0623451766	       -0.0094775781	        0.0000000000	        0.0000000000	        0.0000000000	      -74.2504187931	      675.0431436430	       18.2904471534	        1.0497534260	        0.0000000000	       -0.0523595093	        0.0000000000	        0.0000000000	        0.0000000000	        0.0000000000	        0.0000000000	        0.0000000000	
        0.7878214095	       -0.0788976750	        0.0383025731	       -0.0059367621	        0.0000000000	        0.0000000000	        0.0000000000	      -64.6335978139	      651.8490854914	       19.0439037238	        1.0543272634	        0.0000000000	       -0.0521488627	        0.0000000000	        0.0000000000	        0.0000000000	        0.0000000000	        0.0000000000	        0.0000000000	
        0.8003265113	       -0.0632847159	        0.0295984843	       -0.0046899632	        0.0000000000	        0.0000000000	        0.0000000000	      -55.6413361711	      631.6112458043	       19.3320266842	        1.0586583225	        0.0000000000	       -0.0520263616	        0.0000000000	        0.0000000000	        0.0000000000	        0.0000000000	        0.0000000000	        0.0000000000	
